<?xml version="1.0" standalone="no"?>
<!DOCTYPE svg PUBLIC "-//W3C//DTD SVG 20010904//EN"
 "http://www.w3.org/TR/2001/REC-SVG-20010904/DTD/svg10.dtd">
<svg version="1.0" xmlns="http://www.w3.org/2000/svg"
 width="512.000000pt" height="512.000000pt" viewBox="0 0 512.000000 512.000000"
 preserveAspectRatio="xMidYMid meet">
<metadata>
Created by potrace 1.11, written by Peter Selinger 2001-2013
</metadata>
<g transform="translate(0.000000,512.000000) scale(0.100000,-0.100000)"
fill="#000000" stroke="none">
<path d="M4120 5006 c0 -2 8 -10 18 -17 15 -13 16 -12 3 4 -13 16 -21 21 -21
13z"/>
<path d="M4109 4977 c6 -8 7 -18 3 -22 -4 -5 -1 -5 6 -1 10 6 10 11 1 22 -6 8
-14 14 -16 14 -3 0 0 -6 6 -13z"/>
<path d="M4199 4973 c-13 -16 -12 -17 4 -4 16 13 21 21 13 21 -2 0 -10 -8 -17
-17z"/>
<path d="M4075 4970 c-4 -6 -10 -8 -15 -5 -11 7 -7 -22 5 -32 4 -4 5 -2 1 5
-4 6 -3 12 2 12 6 0 12 7 16 15 6 17 0 20 -9 5z"/>
<path d="M4170 4971 c0 -8 -7 -11 -17 -6 -15 5 -16 4 -5 -6 9 -10 15 -10 24
-1 6 6 9 15 5 19 -4 3 -7 1 -7 -6z"/>
<path d="M4231 4972 c-1 -7 6 -15 14 -18 8 -4 12 -11 8 -18 -3 -6 -2 -8 2 -3
5 4 9 16 10 27 1 15 -2 17 -11 9 -8 -7 -14 -6 -17 3 -4 10 -6 10 -6 0z"/>
<path d="M3926 4962 c-3 -5 1 -9 9 -9 8 0 12 4 9 9 -3 4 -7 8 -9 8 -2 0 -6 -4
-9 -8z"/>
<path d="M4215 4950 c6 -10 3 -12 -13 -8 -26 7 -38 -7 -23 -26 6 -7 8 -16 5
-19 -7 -7 -29 12 -35 32 -3 8 -17 15 -31 15 -15 1 -24 -2 -21 -7 3 -5 14 -7
24 -4 11 3 19 1 19 -3 0 -5 3 -17 7 -27 6 -17 6 -17 -14 0 -27 24 -42 4 -17
-24 9 -10 12 -19 6 -19 -17 0 -41 40 -35 59 5 12 3 13 -6 5 -10 -9 -10 -17 -2
-32 8 -15 7 -23 -4 -32 -9 -7 -13 -15 -10 -18 9 -9 36 -11 30 -3 -5 8 3 10 53
14 28 2 30 3 15 14 -9 7 -13 16 -10 20 4 4 15 0 23 -9 12 -12 14 -20 5 -36 -9
-17 -8 -20 14 -18 21 1 23 3 10 12 -14 10 -14 12 0 18 11 4 14 2 9 -7 -5 -9
-4 -9 7 1 7 6 18 12 24 12 5 0 3 -5 -5 -11 -12 -8 -10 -9 8 -4 21 6 23 4 17
-17 -5 -18 -4 -20 4 -8 6 8 8 23 5 33 -3 9 -1 17 5 17 5 0 8 -13 6 -28 -3 -20
1 -29 11 -29 8 0 13 6 10 13 -3 8 0 16 6 20 7 5 8 2 3 -6 -6 -9 -4 -11 5 -5 9
6 11 4 5 -6 -7 -11 -6 -12 6 -2 12 10 19 10 35 -1 10 -7 27 -12 37 -10 16 2
16 0 5 -14 -11 -15 -11 -15 2 -5 25 19 29 19 46 -5 13 -19 18 -21 32 -10 9 8
13 8 9 2 -4 -7 0 -15 9 -18 8 -3 12 -10 9 -16 -3 -5 -1 -10 4 -10 6 0 11 5 11
10 0 6 4 10 9 10 10 0 7 -32 -3 -49 -3 -5 1 -12 10 -15 12 -5 14 -1 9 17 -4
15 -3 18 3 8 8 -11 11 -11 16 0 3 8 3 3 0 -11 l-5 -25 16 25 c15 23 15 24 10
2 -5 -17 -3 -21 12 -19 10 1 24 6 31 10 7 5 12 4 12 -2 0 -6 -5 -11 -11 -11
-5 0 -7 -5 -3 -11 4 -8 9 -7 16 2 7 11 8 10 4 -4 -3 -10 -2 -15 4 -12 5 3 7
-4 5 -15 -2 -12 0 -18 6 -14 6 3 3 -8 -6 -25 -15 -30 -13 -51 4 -51 5 0 7 11
6 24 -2 14 3 27 11 30 12 5 12 1 4 -17 -11 -21 -11 -21 4 -3 9 11 16 14 16 8
0 -13 21 -12 31 2 4 4 6 -8 5 -27 0 -19 -4 -33 -7 -31 -4 2 -12 -3 -19 -11
-14 -17 -7 -19 20 -5 16 9 18 8 14 -5 -4 -8 0 -22 7 -31 10 -13 10 -17 -1 -24
-8 -5 -21 -5 -31 0 -9 5 -19 6 -23 3 -4 -4 4 -13 16 -20 13 -7 18 -12 12 -13
-5 0 -18 6 -27 13 -14 11 -14 14 -2 31 8 11 15 14 15 8 0 -7 4 -12 8 -12 4 0
8 8 8 18 0 11 -9 18 -22 18 -13 1 -21 -3 -20 -10 2 -6 1 -8 -1 -3 -3 4 -10 4
-16 0 -7 -4 -6 1 2 10 16 20 2 23 -18 5 -10 -9 -12 -9 -7 -1 3 6 -2 16 -11 22
-10 6 -13 11 -7 11 6 0 14 -3 17 -7 4 -3 19 -8 33 -9 21 -2 23 0 14 11 -6 8
-17 12 -25 9 -7 -3 -16 0 -20 5 -3 6 -11 8 -17 5 -6 -4 -6 1 1 14 13 24 14 43
4 41 -20 -3 -33 2 -31 12 2 6 -3 14 -10 16 -7 3 -11 0 -10 -7 2 -6 -6 -18 -18
-26 -18 -12 -21 -12 -21 0 0 8 6 12 14 9 8 -3 13 -2 11 3 -1 5 3 19 10 31 7
12 8 24 3 27 -4 3 -13 -6 -19 -19 -11 -24 -42 -26 -42 -3 0 6 6 5 15 -2 16
-14 20 -3 6 19 -5 8 -14 10 -21 6 -8 -5 -11 -4 -6 3 3 6 -3 13 -14 17 -11 3
-20 11 -20 16 0 5 -5 9 -11 9 -5 0 -7 -4 -4 -10 3 -6 -1 -7 -10 -4 -14 6 -13
8 5 21 29 21 25 37 -5 17 -30 -20 -44 -11 -27 16 10 16 9 18 -8 17 -15 -1 -19
-6 -14 -22 4 -14 3 -16 -4 -6 -6 8 -12 9 -16 3 -10 -17 -56 -11 -67 10 -8 15
-14 17 -24 8 -10 -9 -15 -6 -20 10 -3 11 -11 18 -16 15 -5 -4 -12 1 -15 9 -9
23 -26 19 -19 -4 4 -12 2 -20 -5 -20 -6 0 -9 4 -6 9 3 5 -1 12 -10 15 -24 9
-28 7 -14 -9 9 -10 9 -15 1 -15 -6 0 -11 5 -11 10 0 6 -5 10 -11 10 -5 0 -7
-4 -4 -10 9 -14 -8 -12 -24 3 -11 10 -13 9 -7 -6 3 -10 6 -21 6 -23 0 -3 5 -2
12 2 7 5 8 3 3 -6 -6 -10 -12 -9 -25 8 -16 19 -18 19 -34 4 -10 -10 -16 -12
-16 -4 0 7 6 12 13 12 12 0 -11 20 -24 20 -10 0 -5 -33 9 -60 10 -18 5 -16
-17 10 -17 19 -31 39 -31 43 0 5 -5 5 -11 2 -7 -5 -4 -14 8 -28 l18 -22 -24
20 -24 20 6 -20 c7 -22 -8 -54 -20 -42 -4 5 -1 12 7 17 8 5 11 12 8 16 -9 8
-68 -34 -68 -49 0 -8 -4 -7 -9 2 -5 8 -16 11 -26 7 -14 -5 -15 -9 -5 -21 7 -9
8 -15 2 -15 -14 0 -23 28 -12 35 6 4 10 10 10 16 0 5 -9 4 -19 -3 -11 -7 -19
-14 -19 -17 2 -28 -3 -34 -15 -17 -13 17 -14 17 -28 0 -12 -16 -12 -17 4 -11
25 9 21 2 -20 -37 -21 -20 -44 -34 -50 -31 -8 3 -12 -4 -10 -18 2 -19 -3 -22
-33 -22 -27 0 -35 -4 -37 -20 -2 -11 0 -14 3 -7 4 9 11 7 25 -9 17 -19 18 -39
2 -39 -4 0 -3 3 0 7 9 9 -13 34 -24 27 -5 -3 -9 -14 -9 -25 0 -10 -4 -19 -10
-19 -5 0 -6 8 -3 18 6 14 4 15 -8 5 -12 -9 -18 -10 -27 -1 -8 8 -11 6 -9 -10
0 -11 8 -21 17 -21 38 -2 49 -5 54 -17 3 -8 0 -16 -6 -20 -6 -4 -8 -3 -5 3 10
17 -20 24 -33 8 -8 -10 -9 -20 0 -37 11 -22 10 -22 -4 -4 -17 21 -49 31 -44
14 2 -5 8 -9 13 -9 21 0 27 -30 8 -44 -10 -8 -21 -15 -25 -15 -5 0 -8 -4 -8
-10 0 -14 27 -12 33 3 2 6 4 -3 3 -20 0 -18 -5 -33 -9 -33 -5 0 -7 7 -3 15 8
22 -11 18 -28 -6 -14 -21 -43 -18 -30 3 5 7 2 8 -7 3 -11 -7 -11 -5 1 10 12
15 12 17 1 10 -9 -5 -12 -4 -7 3 4 6 13 9 21 5 8 -3 15 0 15 6 0 6 -3 10 -7
10 -5 -1 -11 0 -15 1 -5 1 -13 3 -20 4 -6 0 -13 7 -16 15 -3 8 0 11 7 7 6 -4
11 -1 11 6 1 7 6 3 13 -10 9 -16 16 -19 24 -11 9 9 17 12 53 18 3 1 -2 5 -10
11 -9 5 -19 5 -27 -2 -7 -6 -13 -7 -13 -2 0 5 -5 2 -10 -6 -6 -9 -10 -10 -10
-3 0 6 5 15 11 19 8 4 7 9 -2 16 -11 7 -10 8 4 4 11 -3 16 -2 12 4 -3 6 -1 10
6 10 7 0 9 3 6 7 -4 3 0 17 8 30 10 15 12 23 4 23 -9 0 -8 4 0 14 7 8 8 16 4
18 -4 3 -2 3 5 1 8 -2 10 2 6 10 -5 7 0 6 12 -3 17 -14 18 -14 6 2 -9 11 -10
18 -2 23 5 3 10 4 10 1 0 -12 46 40 46 53 1 9 -4 8 -13 -5 -7 -10 -13 -13 -13
-7 0 6 6 16 14 22 10 9 16 8 26 -4 7 -8 17 -15 22 -15 7 0 6 5 -1 13 -6 8 -7
18 -3 22 4 5 1 5 -6 1 -6 -4 -25 2 -40 13 -20 14 -32 17 -43 10 -11 -8 -10 -9
5 -7 10 2 21 -3 23 -10 3 -8 -2 -10 -14 -6 -10 3 -14 2 -8 -3 16 -13 16 -40 0
-40 -9 0 -14 5 -12 12 3 6 -1 19 -9 29 -7 11 -11 23 -8 27 3 5 1 9 -5 9 -16 0
-8 -39 9 -46 12 -4 9 -11 -15 -30 -16 -13 -25 -24 -18 -24 6 0 15 5 18 10 3 6
11 10 18 10 6 0 3 -9 -8 -20 -26 -26 -64 -17 -59 13 4 21 4 21 -5 2 -10 -24
-5 -35 15 -35 8 0 12 -4 9 -10 -3 -5 0 -7 7 -5 9 4 14 -2 15 -16 2 -17 0 -19
-14 -8 -13 11 -18 10 -29 -6 -8 -11 -20 -20 -27 -20 -7 0 -14 -4 -16 -10 -2
-5 -11 -16 -20 -23 -14 -11 -13 -12 4 -4 11 5 27 7 35 5 9 -3 7 1 -4 10 -19
14 -19 15 6 15 33 0 32 -24 -5 -60 -15 -16 -22 -28 -16 -28 8 0 7 -5 -2 -16
-12 -15 -14 -14 -21 7 -7 21 -7 21 -4 -4 2 -18 -2 -31 -11 -34 -11 -4 -10 -8
3 -18 19 -14 29 -55 14 -55 -6 0 -10 5 -10 10 0 6 -5 10 -11 10 -8 0 -7 -5 1
-15 7 -9 19 -14 27 -11 7 3 13 1 13 -4 0 -17 -42 -11 -56 8 -13 16 -14 16 -8
0 7 -22 193 -19 -1561 -21 l-1380 -2 -66 -32 c-79 -39 -141 -99 -177 -173
l-27 -55 0 -1400 0 -1400 29 -49 c59 -99 165 -182 241 -188 14 -1 25 -5 25 -8
0 -3 33 -4 72 -3 43 0 79 -4 87 -10 10 -8 12 -8 8 -1 -4 8 41 11 154 12 112 0
157 -3 153 -10 -5 -7 -2 -8 7 -2 8 5 25 10 37 12 17 2 22 -1 16 -10 -6 -10 -4
-10 7 -2 8 6 38 12 68 13 42 2 51 0 45 -11 -6 -10 -5 -11 7 -2 19 16 242 17
233 2 -5 -7 -2 -8 7 -2 20 12 102 17 95 5 -4 -5 -2 -13 4 -16 6 -4 9 -1 8 7
-2 9 10 14 36 16 28 2 36 0 30 -9 -5 -9 -3 -9 7 -3 23 14 320 15 338 1 12 -9
13 -9 8 0 -10 16 211 15 232 -1 11 -8 13 -8 7 2 -6 10 6 12 53 11 41 -1 58 -6
54 -13 -5 -8 -3 -8 8 0 22 16 78 17 96 2 13 -10 15 -10 9 0 -6 9 3 12 36 9 24
-1 49 -6 57 -11 10 -6 12 -5 7 2 -5 9 8 12 44 12 36 0 49 -3 44 -12 -5 -7 -3
-8 7 -2 8 5 25 10 37 12 17 2 22 -1 16 -10 -6 -10 -4 -10 7 -2 8 6 38 12 68
13 42 2 51 0 45 -11 -6 -10 -5 -11 7 -2 19 16 242 17 233 2 -5 -7 -2 -8 7 -2
20 12 102 17 95 5 -4 -5 -2 -13 4 -16 6 -4 9 -1 8 7 -2 9 13 14 55 16 44 2 57
0 51 -9 -5 -8 -3 -9 7 -3 8 5 25 10 37 12 17 2 22 -1 16 -10 -6 -10 -4 -10 7
-2 8 6 38 12 68 13 42 2 51 0 45 -11 -6 -10 -5 -11 7 -2 19 16 242 17 233 2
-5 -7 -2 -8 7 -2 20 12 102 17 95 5 -4 -5 -2 -13 4 -16 6 -4 9 -1 8 7 -4 18
69 23 90 6 11 -9 13 -9 9 -1 -10 16 211 15 232 -1 11 -8 13 -8 7 2 -6 10 6 12
53 11 41 -1 58 -6 54 -13 -5 -8 -3 -8 8 0 20 16 121 16 112 1 -5 -9 -3 -9 8
-1 20 16 181 16 172 0 -5 -8 -3 -8 8 0 19 16 121 16 112 0 -4 -6 1 -5 10 2 9
8 21 11 26 7 6 -3 20 -1 32 6 17 9 23 8 30 -2 5 -8 9 -9 9 -3 0 14 77 45 95
38 7 -3 16 -1 20 5 4 7 -1 9 -12 5 -10 -4 -5 5 12 19 57 48 72 62 89 89 10 15
23 25 29 21 6 -3 7 -1 3 6 -4 7 -1 27 7 44 9 18 18 46 21 62 8 41 8 2719 0
2738 -3 9 -2 21 2 28 4 8 3 9 -4 5 -8 -4 -12 0 -12 11 0 10 -9 33 -21 52 -14
24 -17 37 -10 44 6 6 11 15 11 21 0 5 -7 1 -15 -10 -14 -19 -15 -19 -21 3 -3
13 -11 20 -17 16 -6 -3 -7 -1 -3 5 4 7 1 12 -7 12 -7 0 -23 10 -35 23 -33 36
-49 46 -58 39 -5 -4 -3 0 4 10 8 10 9 19 3 22 -5 3 -11 2 -13 -3 -1 -6 -13 -2
-25 7 -17 13 -20 20 -12 32 9 12 10 12 5 -3 -4 -12 -2 -17 6 -14 7 2 12 12 10
21 -3 14 0 14 18 -4 11 -11 25 -18 30 -15 6 4 10 1 10 -5 0 -7 -7 -10 -17 -6
-12 4 -9 -1 6 -12 13 -11 21 -24 17 -31 -4 -6 -2 -11 3 -11 6 0 11 7 11 15 0
8 5 15 10 15 13 0 13 -17 -1 -25 -6 -5 -4 -12 8 -22 10 -8 12 -11 4 -7 -9 4
-12 3 -8 -4 4 -5 16 -8 26 -5 13 3 21 -2 26 -17 4 -12 9 -19 12 -17 9 9 -18
47 -33 47 -8 0 -13 4 -9 10 3 5 12 7 19 4 21 -8 26 8 12 35 -11 20 -14 21 -19
7 -4 -10 -3 -15 2 -12 5 3 12 -1 15 -10 4 -11 2 -15 -8 -11 -7 3 -19 0 -25 -6
-16 -16 -10 34 7 51 6 7 12 18 12 24 0 6 -9 0 -19 -13 -17 -20 -22 -22 -33
-10 -7 8 -8 11 -2 8 7 -4 17 -1 23 7 12 14 5 46 -10 46 -5 0 -9 5 -9 11 0 5 5
7 10 4 6 -3 10 -1 10 5 0 7 -6 10 -14 7 -8 -3 -17 1 -20 10 -5 11 -2 14 9 9 9
-3 13 -2 10 3 -3 5 -1 12 5 16 7 4 7 12 0 26 -7 11 -7 19 -1 19 5 0 12 -5 14
-10 3 -6 4 -5 3 2 -3 12 -8 14 -48 17 -10 0 -18 6 -18 12 0 5 5 7 12 3 6 -4 8
-3 5 3 -4 6 0 16 8 23 8 7 15 22 14 34 l-1 21 -6 -21 c-5 -16 -12 -19 -27 -14
-18 7 -19 8 -2 15 9 4 17 12 17 17 0 7 -5 6 -14 -1 -15 -12 -49 -4 -41 10 3 4
13 5 22 2 11 -4 14 -3 9 6 -4 6 -15 10 -23 9 -9 -2 -18 3 -21 11 -2 8 0 11 5
8 5 -3 15 -1 23 5 12 8 12 9 -2 4 -20 -6 -49 29 -41 50 3 8 0 14 -5 14 -6 0
-9 -10 -7 -23 4 -19 0 -23 -23 -25 -25 -1 -26 0 -9 12 15 11 16 18 8 34 -9 16
-6 23 12 36 l22 17 -22 -11 c-18 -8 -23 -8 -23 2 0 9 -3 9 -9 -2 -6 -8 -8 -17
-5 -21 2 -4 -5 -7 -16 -6 -20 1 -27 12 -12 20 4 2 1 2 -5 1 -15 -4 -16 5 -3
26 6 10 10 11 10 3 0 -7 5 -13 10 -13 6 0 5 8 -2 20 -12 19 -13 19 -23 0 -7
-14 -14 -17 -25 -10 -13 9 -13 10 0 10 12 0 12 2 2 9 -10 6 -8 10 9 14 13 4
20 9 17 12 -3 4 -16 1 -28 -5 -22 -12 -50 1 -50 22 0 6 7 5 15 -2 9 -7 18 -10
21 -8 3 3 -11 16 -30 28 -20 12 -36 27 -36 32 0 6 -3 8 -6 5 -4 -4 -1 -13 6
-22 9 -11 9 -15 1 -15 -6 0 -14 7 -17 15 -5 12 -10 13 -20 4 -16 -13 -19 2 -4
17 6 6 5 15 -1 24 -9 13 -10 12 -5 -2 7 -22 -10 -33 -18 -12 -3 8 -10 13 -15
10 -5 -4 -11 -3 -14 1 -2 5 -2 1 0 -7 8 -29 8 -33 -3 -37 -11 -4 -13 3 -16 55
-1 16 -6 29 -12 29 -6 0 -20 4 -31 7 -11 4 -8 0 8 -9 15 -8 27 -21 27 -27 0
-7 -5 -6 -15 2 -10 9 -15 9 -15 1 0 -6 -4 -11 -10 -11 -5 0 -7 7 -4 15 4 8 1
15 -6 15 -6 0 -8 -4 -5 -10 3 -5 2 -10 -3 -10 -5 0 -13 10 -19 22 -8 19 -10
20 -16 4 -4 -9 -3 -15 2 -12 5 3 11 -1 14 -8 4 -10 -1 -14 -14 -13 -10 1 -19
6 -19 11 0 5 -6 1 -14 -10 -8 -10 -17 -17 -20 -14 -3 3 6 19 19 34 14 16 25
33 25 39 0 5 -8 -1 -19 -14 -16 -20 -21 -21 -35 -10 -9 7 -13 18 -9 25 4 6 0
5 -9 -2 -12 -9 -18 -10 -23 -2 -5 8 -11 8 -21 -1 -15 -12 -44 -6 -44 10 0 5 8
7 19 4 22 -6 37 12 20 23 -8 5 -9 3 -4 -6z m35 -51 c0 -5 -5 -8 -11 -6 -6 1
-14 -5 -16 -13 -3 -10 -2 -11 4 -4 4 6 16 10 25 9 11 -2 15 2 11 11 -8 20 1
17 23 -8 10 -12 13 -18 7 -14 -7 4 -18 4 -25 0 -20 -13 -68 -11 -79 2 -11 14
4 29 20 20 5 -3 12 1 15 10 6 15 26 11 26 -7z m-109 -22 c12 -22 12 -22 -10
-3 -11 11 -21 23 -21 28 0 14 19 -1 31 -25z m-35 -19 c4 -7 4 -10 -1 -6 -4 4
-15 2 -24 -5 -14 -11 -14 -10 -2 6 16 20 18 21 27 5z m326 -12 c-2 -5 2 -12 8
-16 9 -5 9 -9 1 -14 -6 -4 -11 -2 -11 3 0 6 -10 9 -22 7 -13 -2 -32 3 -44 10
-11 8 -23 12 -26 8 -3 -3 -8 -2 -11 3 -3 5 20 8 51 8 31 0 55 -4 54 -9z m89
-40 c5 3 16 1 23 -5 7 -6 21 -9 30 -5 12 4 15 2 11 -9 -6 -14 18 -47 34 -47 4
0 7 -8 8 -18 1 -10 -4 -19 -11 -19 -7 0 -13 7 -12 16 1 10 -7 16 -21 16 -12 0
-25 3 -29 8 -4 4 0 7 9 7 10 0 17 4 17 8 0 5 -14 8 -30 7 -33 -2 -48 9 -29 21
8 5 9 3 4 -6 -5 -9 -4 -11 4 -6 6 4 9 11 7 15 -6 9 -37 8 -53 -2 -17 -11 -25
9 -8 23 7 6 12 19 9 28 -3 9 2 4 11 -11 9 -15 20 -25 26 -21z m-251 -20 c0 -2
-6 -9 -14 -15 -11 -9 -16 -9 -22 0 -4 8 -3 9 4 5 7 -4 12 -2 12 3 0 6 5 11 10
11 6 0 10 -2 10 -4z m-83 -25 c0 -11 -5 -18 -9 -15 -4 3 -5 11 -1 19 7 21 12
19 10 -4z m37 3 c4 -10 2 -13 -6 -8 -8 5 -9 1 -4 -12 5 -14 4 -16 -4 -8 -6 6
-8 18 -4 27 8 21 10 21 18 1z m-90 -2 c2 -4 -4 -8 -14 -8 -10 0 -16 4 -14 8 3
4 9 8 14 8 5 0 11 -4 14 -8z m151 -14 c-9 -6 -19 -7 -22 -4 -4 3 -1 6 6 6 7 0
9 4 6 10 -4 6 1 7 11 3 15 -6 15 -7 -1 -15z m-222 -5 c3 -5 -5 -8 -18 -8 -13
0 -21 3 -18 8 2 4 10 7 18 7 8 0 16 -3 18 -7z m267 -3 c0 -5 -4 -10 -10 -10
-5 0 -10 5 -10 10 0 6 5 10 10 10 6 0 10 -4 10 -10z m-204 -26 c1 -9 0 -13 -4
-10 -3 4 -7 14 -8 22 -1 9 0 13 4 10 3 -4 7 -14 8 -22z m310 7 c14 -11 24 -23
24 -27 -1 -5 6 -11 16 -14 16 -6 16 -7 -3 -12 -15 -4 -20 -1 -19 11 3 19 -39
55 -54 46 -5 -3 -10 -1 -10 4 0 17 19 13 46 -8z m-473 -11 c-10 -11 -19 -20
-21 -20 -1 0 2 9 8 20 6 11 15 20 20 20 6 0 2 -9 -7 -20z m392 -10 c-3 -5 -12
-10 -18 -10 -7 0 -6 4 3 10 19 12 23 12 15 0z m70 0 c3 -6 -1 -7 -9 -4 -18 7
-21 14 -7 14 6 0 13 -4 16 -10z m80 -10 c3 -6 -1 -7 -9 -4 -18 7 -21 14 -7 14
6 0 13 -4 16 -10z m-571 -8 c3 -5 -1 -9 -9 -9 -8 0 -12 4 -9 9 3 4 7 8 9 8 2
0 6 -4 9 -8z m156 4 c0 -3 -4 -8 -10 -11 -5 -3 -10 -1 -10 4 0 6 5 11 10 11 6
0 10 -2 10 -4z m332 -14 c12 -15 11 -16 -4 -4 -9 8 -22 11 -27 8 -5 -4 -12 -3
-15 2 -10 16 33 10 46 -6z m-538 -36 c2 -14 0 -23 -4 -21 -4 3 -7 16 -7 30 0
32 8 26 11 -9z m480 22 c-3 -4 -11 -5 -19 -1 -21 7 -19 12 4 10 11 0 18 -5 15
-9z m350 0 c-3 -4 0 -8 7 -8 10 0 10 -3 1 -12 -14 -14 -45 -20 -37 -8 3 5 1
11 -5 15 -15 9 -5 21 19 21 11 0 17 -4 15 -8z m-1034 -2 c0 -2 -8 -10 -17 -17
-16 -13 -17 -12 -4 4 13 16 21 21 21 13z m169 -12 c4 3 7 -4 7 -15 0 -19 -1
-19 -13 -3 -7 10 -13 23 -12 28 0 6 3 5 6 -2 2 -6 8 -10 12 -8z m-41 -14 c-7
-10 -14 -17 -17 -15 -4 4 18 35 25 35 2 0 -1 -9 -8 -20z m707 10 c3 -6 -1 -7
-9 -4 -18 7 -21 14 -7 14 6 0 13 -4 16 -10z m-695 -30 c-6 -11 -13 -20 -16
-20 -2 0 0 9 6 20 6 11 13 20 16 20 2 0 0 -9 -6 -20z m680 14 c0 -8 -19 -13
-24 -6 -3 5 1 9 9 9 8 0 15 -2 15 -3z m-846 -26 c-3 -4 -11 -8 -19 -8 -7 0
-15 -7 -19 -15 -3 -8 -11 -15 -17 -15 -7 0 -3 11 9 23 21 22 58 34 46 15z
m972 1 c3 -6 1 -16 -6 -22 -10 -9 -12 -8 -7 5 4 11 0 18 -11 21 -16 4 -16 5 0
6 9 0 20 -4 24 -10z m149 -10 c-10 -15 -25 -10 -19 6 4 8 10 12 15 9 5 -3 7
-10 4 -15z m-931 -7 c3 -5 -1 -9 -9 -9 -8 0 -12 4 -9 9 3 4 7 8 9 8 2 0 6 -4
9 -8z m726 4 c0 -2 -7 -7 -16 -10 -8 -3 -12 -2 -9 4 6 10 25 14 25 6z m-800
-27 c0 -6 -4 -7 -10 -4 -5 3 -10 11 -10 16 0 6 5 7 10 4 6 -3 10 -11 10 -16z
m-37 -7 c-3 -7 -9 -10 -12 -5 -3 4 -10 11 -15 15 -4 4 1 6 12 5 12 -1 18 -6
15 -15z m554 3 c0 -8 -4 -12 -9 -9 -5 3 -6 10 -3 15 9 13 12 11 12 -6z m280 0
c0 -8 -4 -12 -9 -9 -5 3 -6 10 -3 15 9 13 12 11 12 -6z m217 -27 c0 -20 3 -35
8 -32 4 3 5 -3 2 -13 -5 -15 -4 -16 5 -3 6 8 11 11 11 6 0 -6 5 -5 12 2 7 7
17 12 23 12 5 -1 -3 -12 -20 -26 -16 -14 -25 -24 -20 -23 17 4 62 -19 68 -34
3 -9 -3 -21 -14 -29 -20 -13 -20 -13 5 -51 28 -41 27 -63 -3 -47 -10 5 -21 7
-23 4 -9 -8 -30 25 -23 36 4 7 13 7 28 -1 21 -10 21 -10 3 5 -11 9 -24 16 -29
16 -4 0 -5 5 -1 11 4 8 9 7 15 -2 6 -10 9 -10 9 -2 0 6 -5 15 -10 18 -6 4 -8
11 -4 16 3 5 9 7 13 5 4 -3 8 4 8 15 2 21 -12 26 -23 7 -5 -7 -2 -8 7 -3 8 5
4 -3 -9 -17 -12 -13 -19 -28 -15 -31 3 -4 0 -7 -8 -7 -12 0 -12 -2 0 -9 9 -6
10 -11 2 -15 -6 -4 -12 -1 -12 6 -1 7 -2 20 -3 28 -1 8 3 21 8 28 5 7 5 12 -1
12 -14 0 -32 -21 -29 -34 2 -6 1 -8 -1 -4 -2 4 -12 5 -21 2 -15 -5 -15 -4 1 9
15 13 16 16 2 27 -13 11 -13 15 6 31 12 10 26 16 30 13 13 -8 11 9 -5 31 -7
11 -12 28 -10 37 1 10 -2 20 -7 24 -16 9 -10 26 9 22 13 -2 17 -13 16 -40z
m-172 25 c-6 -2 -10 -8 -8 -12 3 -4 -1 -8 -9 -8 -11 0 -12 4 -4 14 6 7 17 13
23 12 7 0 6 -2 -2 -6z m-1033 -37 c14 -16 0 -54 -25 -69 -7 -4 -11 -13 -8 -20
3 -8 -4 -13 -17 -14 -18 -2 -19 0 -7 15 7 9 18 20 24 24 6 4 10 23 7 43 -4 37
6 45 26 21z m171 4 c0 -5 -4 -10 -10 -10 -5 0 -10 5 -10 10 0 6 5 10 10 10 6
0 10 -4 10 -10z m1070 -24 c0 -5 -7 -3 -15 4 -8 7 -12 17 -9 22 7 10 24 -9 24
-26z m-1122 -11 c-3 -3 -9 2 -12 12 -6 14 -5 15 5 6 7 -7 10 -15 7 -18z m92
21 c0 -3 -4 -8 -10 -11 -5 -3 -10 -1 -10 4 0 6 5 11 10 11 6 0 10 -2 10 -4z
m825 -6 c-3 -5 -12 -10 -18 -10 -7 0 -6 4 3 10 19 12 23 12 15 0z m42 -22 c-3
-8 -6 -5 -6 6 -1 11 2 17 5 13 3 -3 4 -12 1 -19z m-993 -33 c3 -8 1 -15 -4
-15 -6 0 -10 7 -10 15 0 8 2 15 4 15 2 0 6 -7 10 -15z m1019 2 c4 3 7 1 7 -5
0 -18 -27 -14 -34 4 -5 13 -4 14 7 6 8 -7 17 -9 20 -5z m-953 -1 c0 -3 -4 -8
-10 -11 -5 -3 -10 -1 -10 4 0 6 5 11 10 11 6 0 10 -2 10 -4z m894 -24 c3 -5
-1 -9 -9 -9 -8 0 -12 4 -9 9 3 4 7 8 9 8 2 0 6 -4 9 -8z m-937 -8 c-3 -3 -12
-4 -19 -1 -8 3 -5 6 6 6 11 1 17 -2 13 -5z m3 -39 c0 -2 -9 -3 -19 -2 -11 0
-18 5 -15 9 4 6 34 0 34 -7z m-175 -5 c4 -6 12 -7 18 -3 7 4 6 0 -2 -10 -7 -9
-10 -17 -5 -17 4 0 -1 -7 -12 -16 -10 -8 -13 -13 -7 -9 12 5 62 -23 63 -35 0
-3 -13 -6 -29 -6 -28 -2 -32 3 -41 44 -1 4 -8 14 -16 23 -10 12 -11 18 -2 27
15 15 25 15 33 2z m215 6 c0 -2 -8 -10 -17 -17 -16 -13 -17 -12 -4 4 13 16 21
21 21 13z m-45 -25 c3 -5 2 -12 -3 -15 -5 -3 -9 1 -9 9 0 17 3 19 12 6z m1059
-11 c-6 -6 -15 -5 -24 1 -13 9 -12 10 3 5 9 -3 17 0 17 6 0 6 3 8 7 5 4 -4 2
-12 -3 -17z m-40 -6 c3 -8 2 -12 -4 -9 -6 3 -10 10 -10 16 0 14 7 11 14 -7z
m74 -9 c-3 -3 -9 2 -12 12 -6 14 -5 15 5 6 7 -7 10 -15 7 -18z m-1113 -4 c3
-5 2 -12 -3 -15 -5 -3 -9 1 -9 9 0 17 3 19 12 6z m1095 -1 c0 -5 -5 -10 -11
-10 -5 0 -7 5 -4 10 3 6 8 10 11 10 2 0 4 -4 4 -10z m-1155 -30 c8 0 16 -3 18
-7 3 -5 -5 -8 -17 -8 -15 0 -22 6 -23 20 -1 11 1 14 4 8 3 -7 11 -13 18 -13z
m45 -5 c14 -19 14 -19 -2 -6 -10 7 -18 18 -18 24 0 6 1 8 3 6 1 -2 9 -13 17
-24z m1086 -13 c1 -7 0 -8 -3 -2 -2 5 -9 8 -14 4 -5 -3 -9 0 -9 6 0 15 23 7
26 -8z"/>
<path d="M4680 4656 c0 -2 8 -10 18 -17 15 -13 16 -12 3 4 -13 16 -21 21 -21
13z"/>
<path d="M4758 4433 c-8 -10 -8 -17 0 -25 8 -8 13 -7 18 6 5 13 9 14 20 5 12
-9 12 -15 2 -28 -12 -14 -11 -14 5 -2 9 8 15 16 12 19 -3 3 0 11 6 19 13 15
14 14 -24 17 -15 2 -32 -3 -39 -11z m62 1 c0 -8 -19 -13 -24 -6 -3 5 1 9 9 9
8 0 15 -2 15 -3z"/>
<path d="M4822 4320 c3 -8 16 -15 31 -15 14 -1 24 2 22 6 -3 4 -13 6 -23 5 -9
-2 -21 2 -25 8 -6 7 -7 6 -5 -4z"/>
<path d="M3491 4361 c-10 -6 -9 -10 3 -14 8 -3 18 -2 21 3 8 13 -9 20 -24 11z"/>
<path d="M3518 4303 c6 -2 10 -8 8 -12 -3 -4 1 -8 9 -8 11 0 12 4 4 14 -6 7
-17 13 -23 12 -7 0 -6 -2 2 -6z"/>
<path d="M4315 4949 c-4 -6 -5 -12 -2 -15 2 -3 7 2 10 11 7 17 1 20 -8 4z"/>
<path d="M3993 4931 c10 -12 9 -14 -6 -8 -11 4 -16 3 -12 -4 4 -5 12 -8 18 -6
16 5 17 34 1 34 -11 0 -11 -3 -1 -16z"/>
<path d="M4346 4937 c3 -10 9 -15 12 -12 3 3 0 11 -7 18 -10 9 -11 8 -5 -6z"/>
<path d="M4516 4942 c-3 -4 4 -9 15 -9 23 -2 25 3 4 10 -8 4 -16 3 -19 -1z"/>
<path d="M3869 4923 c-13 -16 -12 -17 4 -4 16 13 21 21 13 21 -2 0 -10 -8 -17
-17z"/>
<path d="M4021 4933 c-1 -7 8 -22 20 -34 11 -11 18 -23 16 -26 -3 -2 -15 5
-26 16 -21 21 -21 21 -40 2 -11 -11 -22 -16 -26 -13 -3 4 -3 -2 1 -13 6 -17 5
-18 -7 -7 -8 7 -14 20 -14 29 0 9 -8 17 -17 19 -10 1 -18 -2 -18 -8 0 -6 7 -8
15 -4 17 6 19 -2 6 -23 -7 -10 -12 -8 -25 10 -9 13 -16 19 -16 13 0 -5 5 -15
12 -22 8 -8 8 -15 -2 -26 -7 -9 -15 -14 -19 -12 -4 3 -8 -4 -8 -15 -1 -11 2
-17 8 -14 5 4 9 2 9 -2 0 -5 -9 -14 -20 -21 -19 -11 -20 -10 -16 15 6 33 -1
47 -29 56 -17 6 -17 5 3 -9 12 -9 22 -21 22 -26 0 -6 -7 -5 -15 2 -15 12 -21
3 -16 -24 1 -5 -9 -6 -23 -4 -17 3 -23 1 -19 -8 3 -7 12 -10 21 -6 14 5 15 3
5 -9 -9 -12 -10 -18 -1 -27 8 -8 5 -11 -11 -9 -12 1 -20 6 -17 13 8 20 -21 51
-34 38 -8 -8 -7 -15 4 -27 21 -20 20 -23 -4 -23 -12 0 -19 5 -16 12 3 7 -2 20
-10 31 -14 17 -14 17 -7 -1 5 -14 3 -17 -6 -11 -8 4 -7 -2 3 -17 9 -14 13 -28
9 -32 -4 -3 -12 2 -17 13 -10 17 -12 18 -26 3 -13 -14 -12 -15 3 -9 9 3 17 5
17 3 0 -3 2 -11 5 -19 4 -8 0 -14 -10 -14 -8 0 -15 4 -15 8 0 4 -8 10 -17 13
-15 6 -15 5 1 -13 10 -11 22 -18 26 -16 4 3 10 -2 14 -10 3 -9 12 -12 21 -8
12 4 16 1 13 -12 -5 -26 33 -28 59 -3 25 23 29 38 12 38 -5 0 -7 -4 -4 -10 3
-5 3 -10 -2 -11 -4 0 -18 -2 -31 -3 -13 -2 -26 2 -29 7 -4 6 -1 7 7 2 9 -5 11
-4 6 4 -8 13 15 11 25 -2 3 -5 9 -1 12 8 4 9 3 14 -1 11 -5 -3 -9 1 -9 9 0 8
5 11 10 8 6 -4 7 -1 2 7 -5 9 -4 11 4 6 6 -4 9 -12 6 -17 -10 -15 12 -10 25 6
10 12 16 13 27 3 8 -6 13 -7 12 -2 -3 20 2 35 10 29 16 -9 25 16 10 27 -11 8
-10 9 4 4 10 -3 16 -2 13 3 -3 5 12 7 33 6 33 -2 39 0 34 14 -4 12 -3 13 5 2
6 -8 12 -9 16 -3 3 5 -1 12 -9 16 -8 3 -12 12 -9 21 3 8 10 12 15 9 5 -3 7 -9
4 -14 -3 -5 -1 -11 5 -15 6 -4 8 -11 5 -16 -9 -13 9 -11 23 3 17 17 42 19 35
2 -3 -8 -1 -14 4 -14 13 0 13 32 0 48 -6 8 -6 17 2 26 13 16 4 49 -12 39 -6
-4 -8 0 -4 11 4 9 3 15 -2 11 -5 -3 -12 1 -14 7 -4 10 -6 10 -6 1z m12 -57
c16 -12 16 -14 1 -20 -20 -8 -37 2 -28 16 4 7 2 8 -5 4 -9 -6 -9 -11 0 -22 7
-9 8 -14 1 -14 -16 0 -23 16 -16 34 7 19 23 20 47 2z m-79 -47 c0 -13 -5 -23
-12 -21 -7 1 -12 -3 -12 -10 0 -6 -3 -8 -7 -5 -3 4 2 16 12 27 10 11 15 23 12
27 -4 3 -7 1 -7 -5 0 -6 -6 -9 -14 -6 -8 3 -17 1 -21 -5 -4 -7 0 -8 10 -4 15
5 15 3 4 -15 -12 -19 -14 -20 -23 -5 -7 12 -3 21 14 35 29 23 45 19 44 -13z
m80 -4 c-10 -7 -24 -10 -32 -7 -11 4 -11 6 -1 13 7 4 17 5 21 3 4 -3 8 0 8 6
0 6 5 8 11 5 6 -5 4 -12 -7 -20z m-189 -25 c3 -5 1 -10 -6 -10 -8 0 -8 -4 1
-15 7 -8 16 -13 20 -10 5 3 11 1 15 -4 3 -6 -6 -8 -21 -5 -25 5 -26 3 -13 -13
7 -10 9 -15 5 -11 -5 4 -16 2 -24 -5 -11 -8 -14 -8 -9 0 4 6 3 14 -3 18 -6 4
-4 14 5 29 8 12 12 26 8 29 -3 4 -1 7 5 7 6 0 14 -4 17 -10z m-81 -36 c5 -14
4 -15 -9 -4 -17 14 -19 20 -6 20 5 0 12 -7 15 -16z m1 -54 c-1 -8 -7 -16 -13
-16 -7 -1 -15 -3 -19 -4 -5 -1 -11 -2 -15 -1 -5 0 -8 -4 -8 -11 0 -6 -3 -8 -6
-5 -4 4 1 17 9 31 18 27 56 32 52 6z"/>
<path d="M3815 4761 c-3 -5 -2 -12 3 -15 5 -3 9 1 9 9 0 17 -3 19 -12 6z"/>
<path d="M4290 4925 c0 -8 4 -15 10 -15 5 0 7 7 4 15 -4 8 -8 15 -10 15 -2 0
-4 -7 -4 -15z"/>
<path d="M4373 4919 c-2 -23 3 -25 10 -4 4 8 3 16 -1 19 -4 3 -9 -4 -9 -15z"/>
<path d="M4415 4931 c-3 -5 -2 -12 3 -15 5 -3 9 1 9 9 0 17 -3 19 -12 6z"/>
<path d="M4445 4920 c-3 -6 1 -7 9 -4 18 7 21 14 7 14 -6 0 -13 -4 -16 -10z"/>
<path d="M4599 4913 c-13 -16 -12 -17 4 -4 16 13 21 21 13 21 -2 0 -10 -8 -17
-17z"/>
<path d="M3956 4907 c3 -10 9 -15 12 -12 3 3 0 11 -7 18 -10 9 -11 8 -5 -6z"/>
<path d="M3857 4881 c-3 -11 -2 -22 1 -25 9 -10 32 -7 32 4 0 5 -6 7 -14 4
-11 -4 -13 0 -9 15 3 12 3 21 0 21 -2 0 -7 -9 -10 -19z"/>
<path d="M3770 4881 c0 -6 4 -13 10 -16 6 -3 7 1 4 9 -7 18 -14 21 -14 7z"/>
<path d="M4470 4880 c8 -5 20 -10 25 -10 6 0 3 5 -5 10 -8 5 -19 10 -25 10 -5
0 -3 -5 5 -10z"/>
<path d="M4541 4876 c-9 -11 -9 -16 0 -22 7 -4 9 -3 5 4 -3 5 0 12 6 15 7 2
10 7 7 11 -3 4 -12 0 -18 -8z"/>
<path d="M4570 4881 c0 -6 4 -13 10 -16 6 -3 7 1 4 9 -7 18 -14 21 -14 7z"/>
<path d="M3690 4860 c0 -5 5 -10 11 -10 5 0 7 5 4 10 -3 6 -8 10 -11 10 -2 0
-4 -4 -4 -10z"/>
<path d="M3753 4855 c0 -8 4 -12 9 -9 5 3 6 10 3 15 -9 13 -12 11 -12 -6z"/>
<path d="M4630 4860 c0 -5 5 -10 11 -10 5 0 7 5 4 10 -3 6 -8 10 -11 10 -2 0
-4 -4 -4 -10z"/>
<path d="M3796 4837 c3 -10 9 -15 12 -12 3 3 0 11 -7 18 -10 9 -11 8 -5 -6z"/>
<path d="M4110 4833 c-9 -7 -19 -11 -21 -10 -2 1 2 -3 10 -10 8 -7 20 -9 30
-4 9 5 21 7 26 5 6 -3 11 5 12 15 2 23 -27 25 -57 4z m30 3 c0 -2 -8 -10 -17
-17 -16 -13 -17 -12 -4 4 13 16 21 21 21 13z"/>
<path d="M4593 4835 c0 -8 4 -15 9 -15 4 0 8 7 8 15 0 8 -4 15 -8 15 -5 0 -9
-7 -9 -15z"/>
<path d="M4659 4833 c-13 -16 -12 -17 4 -4 16 13 21 21 13 21 -2 0 -10 -8 -17
-17z"/>
<path d="M3774 4832 c3 -5 0 -13 -6 -15 -9 -4 -10 -6 -1 -6 17 -1 25 16 12 25
-7 4 -9 3 -5 -4z"/>
<path d="M4326 4814 c-10 -7 -23 -11 -27 -8 -5 3 -9 0 -9 -6 0 -7 7 -10 15 -6
8 3 20 -3 27 -13 19 -26 61 -22 63 6 1 12 -1 21 -4 20 -3 -1 -15 4 -26 10 -16
9 -25 8 -39 -3z m17 -9 c-3 -9 -8 -14 -10 -11 -3 3 -2 9 2 15 9 16 15 13 8 -4z
m23 -21 c-4 -9 -9 -15 -11 -12 -3 3 -3 13 1 22 4 9 9 15 11 12 3 -3 3 -13 -1
-22z"/>
<path d="M4686 4818 c3 -5 10 -6 15 -3 13 9 11 12 -6 12 -8 0 -12 -4 -9 -9z"/>
<path d="M3679 4793 c-13 -16 -12 -17 4 -4 16 13 21 21 13 21 -2 0 -10 -8 -17
-17z"/>
<path d="M3716 4798 c3 -4 11 -5 19 -1 21 7 19 12 -4 10 -11 0 -18 -5 -15 -9z"/>
<path d="M4611 4807 c2 -1 13 -9 24 -17 19 -14 19 -14 6 3 -7 9 -18 17 -24 17
-6 0 -8 -1 -6 -3z"/>
<path d="M4674 4802 c3 -5 0 -13 -6 -15 -9 -4 -10 -6 -1 -6 17 -1 25 16 12 25
-7 4 -9 3 -5 -4z"/>
<path d="M3976 4783 c-4 -5 -22 -8 -39 -8 -37 0 -46 -19 -16 -35 19 -11 21
-10 16 4 -3 8 -1 18 5 22 7 4 8 3 4 -4 -4 -7 -3 -12 1 -12 15 0 48 28 42 34
-3 3 -9 3 -13 -1z"/>
<path d="M4445 4769 c-4 -6 -4 -13 -1 -16 3 -4 6 -1 6 6 0 7 5 9 12 5 7 -4 8
-3 4 4 -9 15 -13 15 -21 1z"/>
<path d="M4693 4764 c-9 -25 12 -38 28 -17 13 17 13 17 -5 3 -18 -14 -19 -13
-14 8 7 25 0 30 -9 6z"/>
<path d="M3627 4759 c7 -7 15 -10 18 -7 3 3 -2 9 -12 12 -14 6 -15 5 -6 -5z"/>
<path d="M4495 4750 c-7 -11 12 -40 25 -40 4 0 10 6 13 14 3 8 -1 13 -11 12
-9 0 -16 5 -14 12 3 15 -4 16 -13 2z"/>
<path d="M4731 4731 c-8 -5 -9 -11 -3 -15 5 -3 12 1 16 9 6 17 6 18 -13 6z"/>
<path d="M4606 4675 c-3 -9 0 -18 9 -21 8 -4 15 -12 15 -18 0 -7 6 -13 13 -13
21 0 16 24 -8 47 -20 18 -23 19 -29 5z"/>
<path d="M4750 4680 c-8 -5 0 -7 18 -7 17 1 29 4 26 6 -8 9 -31 9 -44 1z"/>
<path d="M4819 4673 c-13 -17 -13 -17 6 -3 11 8 22 16 24 17 2 2 0 3 -6 3 -6
0 -17 -8 -24 -17z"/>
<path d="M3559 4651 c13 -12 28 -21 34 -21 12 0 11 0 -28 24 l-30 17 24 -20z"/>
<path d="M4795 4640 c-16 -7 -17 -9 -3 -9 9 -1 20 4 23 9 7 11 7 11 -20 0z"/>
<path d="M3692 4606 c-1 -15 1 -17 7 -7 6 9 11 10 15 2 8 -12 26 -15 26 -3 0
4 -10 12 -23 18 -20 9 -23 7 -25 -10z"/>
<path d="M4814 4618 c-3 -5 0 -7 8 -6 8 2 12 -5 11 -19 -4 -31 3 -29 15 5 8
24 7 28 -10 28 -11 0 -22 -4 -24 -8z"/>
<path d="M3493 4593 c0 -10 4 -10 16 -1 9 7 18 13 20 15 2 1 -5 1 -16 0 -11 0
-20 -7 -20 -14z"/>
<path d="M4694 4578 c-4 -5 0 -17 9 -25 13 -14 16 -13 26 6 7 11 10 21 9 22
-24 6 -39 5 -44 -3z"/>
<path d="M3515 4560 c27 -12 43 -12 25 0 -8 5 -22 9 -30 9 -10 0 -8 -3 5 -9z"/>
<path d="M3641 4553 c11 -12 5 -17 -14 -14 -5 1 -6 -3 -2 -9 4 -6 12 -6 24 2
21 13 18 35 -4 35 -11 0 -12 -4 -4 -14z"/>
<path d="M4870 4561 c0 -6 4 -13 10 -16 6 -3 7 1 4 9 -7 18 -14 21 -14 7z"/>
<path d="M4935 4549 c-4 -6 -5 -12 -2 -15 2 -3 7 2 10 11 7 17 1 20 -8 4z"/>
<path d="M3516 4537 c3 -10 9 -15 12 -12 3 3 0 11 -7 18 -10 9 -11 8 -5 -6z"/>
<path d="M3485 4520 c-3 -6 1 -7 9 -4 18 7 21 14 7 14 -6 0 -13 -4 -16 -10z"/>
<path d="M4743 4485 c0 -8 4 -12 9 -9 5 3 6 10 3 15 -9 13 -12 11 -12 -6z"/>
<path d="M3598 4478 c-4 -9 -4 -19 -1 -22 8 -8 43 13 43 26 0 7 -4 7 -14 -1
-11 -9 -15 -9 -18 1 -3 8 -6 7 -10 -4z"/>
<path d="M4867 4483 c-4 -3 -7 -11 -7 -17 0 -6 5 -4 10 4 8 13 11 12 25 -5 16
-20 16 -19 5 3 -11 22 -21 27 -33 15z"/>
<path d="M4910 4476 c0 -2 8 -10 18 -17 15 -13 16 -12 3 4 -13 16 -21 21 -21
13z"/>
<path d="M4955 4460 c3 -5 8 -10 11 -10 2 0 4 5 4 10 0 6 -5 10 -11 10 -5 0
-7 -4 -4 -10z"/>
<path d="M3494 4451 c4 -5 1 -12 -4 -14 -6 -3 -5 -4 2 -3 15 3 23 26 8 26 -6
0 -9 -4 -6 -9z"/>
<path d="M3379 4433 c-13 -16 -12 -17 4 -4 16 13 21 21 13 21 -2 0 -10 -8 -17
-17z"/>
<path d="M3440 4440 c-12 -7 -10 -9 8 -7 12 0 22 5 22 9 0 11 -12 10 -30 -2z"/>
<path d="M4912 4411 c-11 -6 -10 -10 0 -19 11 -8 14 -7 14 9 0 10 0 19 -1 19
0 0 -6 -4 -13 -9z"/>
<path d="M4890 4381 c0 -5 5 -13 10 -16 6 -3 10 -2 10 4 0 5 -4 13 -10 16 -5
3 -10 2 -10 -4z"/>
<path d="M3415 4369 c-4 -6 -5 -12 -2 -15 2 -3 7 2 10 11 7 17 1 20 -8 4z"/>
<path d="M3565 4342 c-6 -4 -11 -14 -13 -22 -3 -12 0 -12 14 2 18 18 17 33 -1
20z"/>
<path d="M4900 4339 c0 -5 9 -9 20 -9 11 0 20 2 20 4 0 2 -9 6 -20 9 -11 3
-20 1 -20 -4z"/>
<path d="M3414 4320 c0 -10 6 -16 13 -13 7 3 13 9 13 13 0 4 -6 10 -13 13 -7
3 -13 -3 -13 -13z"/>
<path d="M4950 4325 c0 -7 30 -13 34 -7 3 4 -4 9 -15 9 -10 1 -19 0 -19 -2z"/>
<path d="M4935 4299 c-5 -8 -5 -11 0 -7 4 4 13 1 20 -8 10 -14 12 -14 25 3 11
14 11 16 0 6 -10 -10 -16 -9 -25 4 -10 13 -13 14 -20 2z"/>
<path d="M4795 4280 c-3 -5 -1 -10 4 -10 6 0 11 5 11 10 0 6 -2 10 -4 10 -3 0
-8 -4 -11 -10z"/>
<path d="M5015 4269 c-4 -6 -5 -12 -2 -15 2 -3 7 2 10 11 7 17 1 20 -8 4z"/>
<path d="M4955 4251 c-3 -5 -2 -12 3 -15 5 -3 9 1 9 9 0 17 -3 19 -12 6z"/>
<path d="M4835 4240 c3 -5 8 -10 11 -10 2 0 4 5 4 10 0 6 -5 10 -11 10 -5 0
-7 -4 -4 -10z"/>
<path d="M5010 4221 c0 -6 4 -13 10 -16 6 -3 7 1 4 9 -7 18 -14 21 -14 7z"/>
<path d="M4955 4180 c3 -5 8 -10 11 -10 2 0 4 5 4 10 0 6 -5 10 -11 10 -5 0
-7 -4 -4 -10z"/>
<path d="M4990 4162 c0 -5 7 -9 15 -9 8 0 12 4 9 9 -3 4 -9 8 -15 8 -5 0 -9
-4 -9 -8z"/>
<path d="M4980 4086 c0 -2 8 -10 18 -17 15 -13 16 -12 3 4 -13 16 -21 21 -21
13z"/>
<path d="M5033 1045 c0 -8 4 -12 9 -9 5 3 6 10 3 15 -9 13 -12 11 -12 -6z"/>
<path d="M615 940 c3 -5 8 -10 11 -10 2 0 4 5 4 10 0 6 -5 10 -11 10 -5 0 -7
-4 -4 -10z"/>
<path d="M1546 942 c-2 -4 4 -8 14 -8 10 0 16 4 14 8 -3 4 -9 8 -14 8 -5 0
-11 -4 -14 -8z"/>
<path d="M1709 937 c6 -8 7 -18 3 -22 -4 -5 -1 -5 6 -1 10 6 10 11 1 22 -6 8
-14 14 -16 14 -3 0 0 -6 6 -13z"/>
<path d="M2236 933 c-6 -14 -5 -15 5 -6 7 7 10 15 7 18 -3 3 -9 -2 -12 -12z"/>
<path d="M3146 942 c-2 -4 4 -8 14 -8 10 0 16 4 14 8 -3 4 -9 8 -14 8 -5 0
-11 -4 -14 -8z"/>
<path d="M3190 946 c0 -2 7 -7 16 -10 8 -3 12 -2 9 4 -6 10 -25 14 -25 6z"/>
<path d="M3786 942 c-2 -4 4 -8 14 -8 10 0 16 4 14 8 -3 4 -9 8 -14 8 -5 0
-11 -4 -14 -8z"/>
<path d="M4156 933 c-6 -14 -5 -15 5 -6 7 7 10 15 7 18 -3 3 -9 -2 -12 -12z"/>
<path d="M1656 927 c3 -10 9 -15 12 -12 3 3 0 11 -7 18 -10 9 -11 8 -5 -6z"/>
<path d="M656 918 c3 -5 10 -6 15 -3 13 9 11 12 -6 12 -8 0 -12 -4 -9 -9z"/>
<path d="M935 920 c3 -5 8 -10 11 -10 2 0 4 5 4 10 0 6 -5 10 -11 10 -5 0 -7
-4 -4 -10z"/>
<path d="M1075 919 c-3 -4 2 -6 10 -5 21 3 28 13 10 13 -9 0 -18 -4 -20 -8z"/>
<path d="M1315 920 c3 -5 8 -10 11 -10 2 0 4 5 4 10 0 6 -5 10 -11 10 -5 0 -7
-4 -4 -10z"/>
<path d="M1350 919 c0 -5 5 -7 10 -4 6 3 10 8 10 11 0 2 -4 4 -10 4 -5 0 -10
-5 -10 -11z"/>
<path d="M1435 920 c3 -5 8 -10 11 -10 2 0 4 5 4 10 0 6 -5 10 -11 10 -5 0 -7
-4 -4 -10z"/>
<path d="M1470 919 c0 -5 5 -7 10 -4 6 3 10 8 10 11 0 2 -4 4 -10 4 -5 0 -10
-5 -10 -11z"/>
<path d="M1996 918 c3 -5 10 -6 15 -3 13 9 11 12 -6 12 -8 0 -12 -4 -9 -9z"/>
<path d="M2030 920 c0 -5 5 -10 11 -10 5 0 7 5 4 10 -3 6 -8 10 -11 10 -2 0
-4 -4 -4 -10z"/>
<path d="M2064 922 c4 -3 14 -7 22 -8 9 -1 13 0 10 4 -4 3 -14 7 -22 8 -9 1
-13 0 -10 -4z"/>
<path d="M2134 922 c4 -3 14 -7 22 -8 9 -1 13 0 10 4 -4 3 -14 7 -22 8 -9 1
-13 0 -10 -4z"/>
<path d="M2390 926 c0 -2 7 -7 16 -10 8 -3 12 -2 9 4 -6 10 -25 14 -25 6z"/>
<path d="M2454 922 c4 -3 14 -7 22 -8 9 -1 13 0 10 4 -4 3 -14 7 -22 8 -9 1
-13 0 -10 -4z"/>
<path d="M2675 919 c-3 -4 2 -6 10 -5 21 3 28 13 10 13 -9 0 -18 -4 -20 -8z"/>
<path d="M2915 920 c3 -5 8 -10 11 -10 2 0 4 5 4 10 0 6 -5 10 -11 10 -5 0 -7
-4 -4 -10z"/>
<path d="M2950 919 c0 -5 5 -7 10 -4 6 3 10 8 10 11 0 2 -4 4 -10 4 -5 0 -10
-5 -10 -11z"/>
<path d="M3035 920 c3 -5 8 -10 11 -10 2 0 4 5 4 10 0 6 -5 10 -11 10 -5 0 -7
-4 -4 -10z"/>
<path d="M3070 919 c0 -5 5 -7 10 -4 6 3 10 8 10 11 0 2 -4 4 -10 4 -5 0 -10
-5 -10 -11z"/>
<path d="M3315 919 c-3 -4 2 -6 10 -5 21 3 28 13 10 13 -9 0 -18 -4 -20 -8z"/>
<path d="M3555 920 c3 -5 8 -10 11 -10 2 0 4 5 4 10 0 6 -5 10 -11 10 -5 0 -7
-4 -4 -10z"/>
<path d="M3590 919 c0 -5 5 -7 10 -4 6 3 10 8 10 11 0 2 -4 4 -10 4 -5 0 -10
-5 -10 -11z"/>
<path d="M3675 920 c3 -5 8 -10 11 -10 2 0 4 5 4 10 0 6 -5 10 -11 10 -5 0 -7
-4 -4 -10z"/>
<path d="M3710 919 c0 -5 5 -7 10 -4 6 3 10 8 10 11 0 2 -4 4 -10 4 -5 0 -10
-5 -10 -11z"/>
<path d="M3916 918 c3 -5 10 -6 15 -3 13 9 11 12 -6 12 -8 0 -12 -4 -9 -9z"/>
<path d="M3950 920 c0 -5 5 -10 11 -10 5 0 7 5 4 10 -3 6 -8 10 -11 10 -2 0
-4 -4 -4 -10z"/>
<path d="M3984 922 c4 -3 14 -7 22 -8 9 -1 13 0 10 4 -4 3 -14 7 -22 8 -9 1
-13 0 -10 -4z"/>
<path d="M4054 922 c4 -3 14 -7 22 -8 9 -1 13 0 10 4 -4 3 -14 7 -22 8 -9 1
-13 0 -10 -4z"/>
<path d="M4316 918 c3 -5 10 -6 15 -3 13 9 11 12 -6 12 -8 0 -12 -4 -9 -9z"/>
<path d="M4526 918 c3 -5 10 -6 15 -3 13 9 11 12 -6 12 -8 0 -12 -4 -9 -9z"/>
<path d="M4453 905 c0 -8 4 -12 9 -9 5 3 6 10 3 15 -9 13 -12 11 -12 -6z"/>
<path d="M1535 900 c3 -5 8 -10 11 -10 2 0 4 5 4 10 0 6 -5 10 -11 10 -5 0 -7
-4 -4 -10z"/>
<path d="M1815 900 c3 -5 8 -10 11 -10 2 0 4 5 4 10 0 6 -5 10 -11 10 -5 0 -7
-4 -4 -10z"/>
<path d="M3135 900 c3 -5 8 -10 11 -10 2 0 4 5 4 10 0 6 -5 10 -11 10 -5 0 -7
-4 -4 -10z"/>
<path d="M3775 900 c3 -5 8 -10 11 -10 2 0 4 5 4 10 0 6 -5 10 -11 10 -5 0 -7
-4 -4 -10z"/>
<path d="M4490 899 c0 -5 5 -7 10 -4 6 3 10 8 10 11 0 2 -4 4 -10 4 -5 0 -10
-5 -10 -11z"/>
<path d="M1155 891 c-3 -5 -2 -12 3 -15 5 -3 9 1 9 9 0 17 -3 19 -12 6z"/>
<path d="M1270 896 c0 -2 8 -10 18 -17 15 -13 16 -12 3 4 -13 16 -21 21 -21
13z"/>
<path d="M2075 889 c-4 -6 -5 -12 -2 -15 2 -3 7 2 10 11 7 17 1 20 -8 4z"/>
<path d="M2755 891 c-3 -5 -2 -12 3 -15 5 -3 9 1 9 9 0 17 -3 19 -12 6z"/>
<path d="M2870 896 c0 -2 8 -10 18 -17 15 -13 16 -12 3 4 -13 16 -21 21 -21
13z"/>
<path d="M3395 891 c-3 -5 -2 -12 3 -15 5 -3 9 1 9 9 0 17 -3 19 -12 6z"/>
<path d="M3510 896 c0 -2 8 -10 18 -17 15 -13 16 -12 3 4 -13 16 -21 21 -21
13z"/>
<path d="M3995 889 c-4 -6 -5 -12 -2 -15 2 -3 7 2 10 11 7 17 1 20 -8 4z"/>
<path d="M4316 887 c3 -10 9 -15 12 -12 3 3 0 11 -7 18 -10 9 -11 8 -5 -6z"/>
<path d="M1390 879 c0 -5 5 -7 10 -4 6 3 10 8 10 11 0 2 -4 4 -10 4 -5 0 -10
-5 -10 -11z"/>
<path d="M1840 880 c-9 -6 -10 -10 -3 -10 6 0 15 5 18 10 8 12 4 12 -15 0z"/>
<path d="M1886 882 c-3 -5 1 -9 9 -9 8 0 12 4 9 9 -3 4 -7 8 -9 8 -2 0 -6 -4
-9 -8z"/>
<path d="M2990 879 c0 -5 5 -7 10 -4 6 3 10 8 10 11 0 2 -4 4 -10 4 -5 0 -10
-5 -10 -11z"/>
<path d="M3630 879 c0 -5 5 -7 10 -4 6 3 10 8 10 11 0 2 -4 4 -10 4 -5 0 -10
-5 -10 -11z"/>
<path d="M913 855 c0 -8 4 -12 9 -9 5 3 6 10 3 15 -9 13 -12 11 -12 -6z"/>
</g>
</svg>
